<?xml version="1.0" encoding="UTF-8"?>
<svg id="Layer_2" data-name="Layer 2" xmlns="http://www.w3.org/2000/svg" viewBox="0 0 219.19 178">
  <g id="Layer_1-2" data-name="Layer 1">
    <path d="m45.62,178c-1.89-.63-1.78-2.61-1.83-4.16-.04-1.37-.15-2.74-.15-4.11,0-27.39.03-54.79.04-82.18,0-1.64,0-3.27,0-5.4-4.41,2.52-8.29,4.73-12.16,6.95-3.41,1.95-4.43,1.79-6.43-1.66-7.99-13.83-15.94-27.68-23.82-41.57-2.05-3.62-1.75-4.46,1.81-6.57,8.06-4.77,16.12-9.54,24.24-14.21,13.92-8.02,27.88-15.98,41.84-23.94,3.11-1.78,3.64-1.6,5.78,1.3,3.45,4.69,7.8,8.42,13.07,10.82,11.64,5.3,23.71,5.74,35.94,2.33,7.9-2.2,14.77-6.11,19.58-13,2.12-3.04,2.68-3.24,5.88-1.42,22.21,12.7,44.41,25.42,66.6,38.15,3.84,2.2,3.95,2.63,1.73,6.59-5.36,9.55-10.74,19.09-16.17,28.6-2.52,4.43-5.14,8.8-7.75,13.18-1.85,3.1-2.94,3.38-6.11,1.55-3.3-1.91-6.55-3.89-9.83-5.82-.76-.45-1.55-.84-2.66-1.45v2.8c0,29.01,0,58.01,0,87.02,0,2.47.23,4.81-2.61,6.19"/>
    <text/>
  </g>
</svg>